<?xml version="1.0" encoding="utf-8"?>
<!-- Generator: Adobe Illustrator 19.1.0, SVG Export Plug-In . SVG Version: 6.00 Build 0)  -->
<svg version="1.1" id="Layer_1" xmlns="http://www.w3.org/2000/svg" xmlns:xlink="http://www.w3.org/1999/xlink" x="0px" y="0px"
	 viewBox="0 0 123 28" style="enable-background:new 0 0 123 28;" xml:space="preserve">
<style type="text/css">
	.st0{fill:#444444;}
	.st1{fill:#455D88;}
	.st2{fill:#919191;}
</style>
<g>
	<rect x="2.9" y="1.2" class="st0" width="4.5" height="4.2"/>
	<g>
		<path class="st0" d="M2.9,21.6c0-0.6,0-14.2,0-14.2h4.5v14.2c0,1.7-0.1,3.9-1.4,5.1C4.5,28,2.4,28,1.9,28C0.6,28,0,27.8,0,27.8v-4
			c0,0,1.9,0.6,2.6-0.5C2.9,22.9,2.9,22.2,2.9,21.6z"/>
	</g>
	<g>
		<path class="st0" d="M9.2,7.4h4.3c0,0,0,6.6,0,7.4c0,1.6,0.3,3.3,2.6,3.3c2.2,0,2.4-2.4,2.4-2.7c0-0.3,0-8,0-8H23v14.2h-4.2v-1.8
			c0,0-1.3,2.1-4.3,2.1c-5.5,0-5.3-4.8-5.3-4.8C9.2,14.5,9.2,7.4,9.2,7.4z"/>
	</g>
	<g>
		<path class="st1" d="M45.8,10.7h2.1v11.2h4.3V10.7h3.4V7.4h-3.4c0,0,0-0.3,0-1.3s0.2-2.4,2.2-2.4c1.1,0,1.6,0.3,1.6,0.3V0.3
			c0,0-1.4-0.3-2.6-0.3c-1.5,0-2.8,0.4-3.7,1c-1.5,1-1.9,2.7-1.9,4.8c0,0,0,1.3,0,1.6h-2.1V10.7L45.8,10.7z"/>
	</g>
	<g>
		<path class="st1" d="M62.8,7.4h4.7l3.7,9.4h0.2l3.2-9.4H79l-5.9,14.9c-0.8,2.1-1.5,3.8-2.6,4.7c-1.1,1-3.5,1.4-7.2,0.5l0.6-3.5
			c0,0,2.4,0.7,3.5,0c1.1-0.6,1.5-2.3,1.5-2.3L62.8,7.4z"/>
	</g>
	<g>
		<rect x="57.4" class="st1" width="4.5" height="21.9"/>
	</g>
	<g>
		<ellipse class="st2" cx="79" cy="19.8" rx="2.1" ry="2.1"/>
	</g>
	<g>
		<path class="st0" d="M33.8,11.6c-0.7-0.7-1.8-1.3-2.9-1.3c-0.9,0-1.7,0.3-1.7,1.1c0,0.8,0.8,1,2.5,1.4c2.1,0.5,4.4,1.5,4.4,4.3
			c0,3.5-3.1,4.8-6,4.8c-2.3,0-4.6-0.8-6.1-2.2l2.6-2.7c0.8,0.9,2.1,1.6,3.4,1.6c0.8,0,1.6-0.3,1.6-1.2c0-0.9-0.9-1.1-2.8-1.6
			c-1.9-0.4-4.1-1.4-4.1-4.1C24.9,8.3,28,7,30.7,7c2.1,0,3.9,0.4,5.3,1.7L33.8,11.6z"/>
	</g>
	<g>
		<path class="st0" d="M41.9,10.7v5.1c0,1.4,0.7,2.3,2.1,2.3c0.5,0,1.1-0.1,1.4-0.2v3.5c-0.7,0.2-1.7,0.5-2.7,0.5
			c-3.9,0-5.2-2.1-5.2-5.2l0-13.6h4.5v4.3H44v3.4H41.9z"/>
	</g>
	<g>
		<path class="st2" d="M119.5,21.9v-5.9c0-1.2-0.3-2.3-1.5-2.3c-1.2,0-1.8,1.1-1.8,2.3v5.8h-3.5v-6.2c0-1.2-0.5-2-1.5-2
			c-1.1,0-1.7,1-1.7,2.3v5.9H106V11h3.4v1.5h0c0.5-0.9,1.6-1.8,3.2-1.8c1.5,0,2.6,0.7,3.2,1.8c0.7-1.1,1.8-1.8,3.4-1.8
			c2.9,0,3.8,2.4,3.8,4.4v6.7L119.5,21.9L119.5,21.9z"/>
	</g>
	<g>
		<path class="st2" d="M90.7,14.5c-0.4-0.5-1.1-0.8-1.8-0.8c-1.5,0-2.4,1.2-2.4,2.7c0,1.5,1,2.7,2.5,2.7c0.7,0,1.5-0.3,1.9-0.8
			l1.9,2.3c-0.9,0.8-2.4,1.4-3.9,1.4c-3.3,0-5.9-2.1-5.9-5.6c0-3.4,2.6-5.6,5.9-5.6c1.5,0,3.1,0.6,3.9,1.4L90.7,14.5z"/>
	</g>
	<g>
		<path class="st2" d="M99,21.9c-3.2,0-6-2.2-6-5.6c0-3.4,2.7-5.6,6-5.6c3.3,0,6,2.1,6,5.6C105,19.7,102.2,21.9,99,21.9z M99,13.6
			c-1.7,0-2.5,1.3-2.5,2.7c0,1.4,0.9,2.7,2.5,2.7c1.7,0,2.5-1.4,2.5-2.7C101.6,14.9,100.6,13.6,99,13.6z"/>
	</g>
</g>
</svg>
