<?xml version="1.0" encoding="utf-8"?>
<!-- Generator: Adobe Illustrator 19.2.0, SVG Export Plug-In . SVG Version: 6.00 Build 0)  -->
<svg version="1.1" id="Layer_1" xmlns="http://www.w3.org/2000/svg" xmlns:xlink="http://www.w3.org/1999/xlink" x="0px" y="0px"
	 viewBox="0 0 15 15" style="enable-background:new 0 0 15 15;" xml:space="preserve" width="15" height="15">
<style type="text/css">
	.st0{fill:#B3B3B3;}
	.st1{fill:#999999;}
	.st2{fill:none;}
</style>
<path class="st0" d="M10.2,4.5"/>
<path class="st1" d="M11,11.5v-1.2L6.4,7.5V4.3c0-0.5-0.4-0.9-0.9-0.9S4.6,3.8,4.6,4.3v3.2L0,10.4v1.2l4.6-1.4v3.2l-1.2,0.9V15
	l2-0.6l2,0.6v-0.9l-1.2-0.9v-3.2L11,11.5z"/>
<path class="st2" d="M0-4.5h24v24H0V-4.5z"/>
<g>
	<rect x="10" y="2" class="st0" width="5" height="1"/>
	<rect x="10" y="2" transform="matrix(4.474713e-11 1 -1 4.474713e-11 15 -10)" class="st0" width="5" height="1"/>
</g>
</svg>
